<svg width="149" height="50" viewBox="0 0 149 50" fill="none" xmlns="http://www.w3.org/2000/svg">
<path d="M39.4262 14.084L38.5146 16.3604L40.6853 21.7391C40.6853 21.7391 41.3601 22.8496 40.3932 23.872H44.1981C44.1981 23.872 43.0674 23.0183 42.6116 21.5956L39.4262 14.084Z" fill="#0653F7"/>
<path d="M47.7915 14.1997C47.7915 14.1997 49.2873 15.0181 49.3527 16.3603C49.3527 16.3603 49.5517 14.7965 50.637 14.1997H47.7915Z" fill="#A020F0"/>
<path d="M37.49 23.8163C37.49 23.8163 35.9942 22.9979 35.9288 21.6558C35.9288 21.6558 35.7298 23.2195 34.6445 23.8163H37.49Z" fill="#A020F0"/>
<path d="M41.3579 14.1997H43.7929L49.5569 21.1976V23.8744H49.2145L41.3579 14.1997Z" fill="#0653F7"/>
<path d="M27.1025 13.2353L59.4529 0L58.7176 25H56.5117L57.247 2.94117L27.8353 13.9706L26.3672 25.7353L27.1025 13.2353Z" fill="#0350F4"/>
<path d="M51.365 29.4116L49.8944 30.8822L30.0415 30.1469L51.365 29.4116Z" fill="#0653F7"/>
<path d="M48.4237 36.7647L41.806 42.647L0 30.8823L48.4237 36.7647Z" fill="#A020F0"/>
<path d="M50.6293 38.2351L41.8058 49.9998L7.24951 34.5586L41.8058 46.3233L50.6293 38.2351Z" fill="#0653F7"/>
<path d="M61.4449 34.491H53.0495C52.9311 34.491 52.8354 34.3953 52.8354 34.277V26.6823C52.8354 26.5639 52.9311 26.4683 53.0495 26.4683H61.4449C61.5633 26.4683 61.659 26.5639 61.659 26.6823V34.277C61.659 34.3953 61.5633 34.491 61.4449 34.491Z" fill="#A020F0"/>
<path d="M57.6223 37.5H51.5788C51.4604 37.5 51.3647 37.4043 51.3647 37.286V31.8317C51.3647 31.7134 51.4604 31.6177 51.5788 31.6177H57.6223C57.7407 31.6177 57.8363 31.7134 57.8363 31.8317V37.286C57.8363 37.4043 57.7407 37.5 57.6223 37.5Z" fill="#FFFF00"/>
<path d="M61.2991 40.441H55.2555C55.1372 40.441 55.0415 40.3453 55.0415 40.2269V34.7726C55.0415 34.6543 55.1372 34.5586 55.2555 34.5586H61.2991C61.4174 34.5586 61.5131 34.6543 61.5131 34.7726V40.2269C61.5131 40.3453 61.4174 40.441 61.2991 40.441Z" fill="#0653F7"/>
<path d="M73.0008 9.55664H77.4176L84.063 22.9304H79.6361L75.2092 14.5677L70.7924 22.9304H66.3555L73.0008 9.55664Z" fill="#0350F4"/>
<path d="M86.999 12.7695C86.999 12.1803 87.1904 11.6414 87.5757 11.1529C87.9609 10.6644 88.4746 10.2766 89.1218 9.98446C89.769 9.69488 90.4816 9.54883 91.2622 9.54883H104.707V12.8929H86.999V12.7695ZM91.4259 17.8108C91.4259 18.2993 91.655 18.7173 92.1133 19.0623C92.5716 19.4073 93.1256 19.5811 93.7803 19.5811H104.709V22.9251H91.1036C90.3481 22.9251 89.6607 22.7866 89.0387 22.5071C88.4167 22.2276 87.9232 21.8549 87.5555 21.3866C87.1879 20.9182 87.0041 20.3969 87.0041 19.8278V14.5624H91.4309V17.8108H91.4259Z" fill="#0350F4"/>
<path d="M120.694 9.55664C121.54 9.55664 122.309 9.71025 122.998 10.02C123.691 10.3297 124.242 10.7477 124.655 11.2715C125.068 11.7953 125.275 12.3769 125.275 13.0166V14.4594C125.275 15.0965 125.068 15.6782 124.655 16.1995C124.242 16.7207 123.691 17.1387 122.998 17.451C122.306 17.7632 121.538 17.9194 120.694 17.9194H118.63L125.275 22.9304H118.64L112.014 17.9194V22.9304H107.567V14.5526H112.014V14.5677H119.899C120.161 14.5677 120.385 14.4972 120.571 14.3587C120.757 14.2177 120.851 14.049 120.851 13.8501V13.6184C120.851 13.4195 120.757 13.2507 120.571 13.1097C120.385 12.9687 120.161 12.9007 119.899 12.9007H107.57V9.55664H112.266H112.276H120.694Z" fill="#0350F4"/>
<path d="M76.3852 35.2187V26.856H79.7368V40.2298H76.3852L69.6995 31.867V35.2187V36.8882V40.2323H66.3555V36.8882V35.2187V26.856H69.6995L76.3852 35.2187Z" fill="#A020F0"/>
<path d="M87.0621 26.8584H90.3986L95.4173 40.2322H92.0732L88.7291 31.8695L85.3926 40.2322H82.0435L87.0621 26.8584Z" fill="#A020F0"/>
<path d="M95.3213 30.2078V26.8638H108.703V30.2078H103.684V35.2265V36.8935V40.2376H100.34V36.8935V35.2265V30.2078H95.3213Z" fill="#A020F0"/>
<path d="M110.952 40.2322V26.8584H114.296V40.2322H110.952Z" fill="#A020F0"/>
<path d="M144.72 35.2187V26.856H148.071V40.2298H144.72L138.032 31.867V35.2187V36.8882V40.2323H134.688V36.8882V35.2187V26.856H138.032L144.72 35.2187Z" fill="#A020F0"/>
<path d="M128.319 16.9569H133.151C133.176 18.1682 133.33 19.3341 133.599 20.3791C132.461 20.6183 131.401 20.9708 130.487 21.4216C129.215 20.2129 128.417 18.6592 128.319 16.9569ZM130.485 11.7847C131.399 12.2354 132.459 12.5855 133.597 12.8272C133.33 13.8722 133.174 15.0356 133.149 16.2493H128.316C128.417 14.5446 129.215 12.9909 130.485 11.7847ZM146.016 16.2468H141.184C141.159 15.0331 141.005 13.8697 140.736 12.8222C141.882 12.5804 142.949 12.2279 143.851 11.7847C145.12 12.9934 145.918 14.5446 146.016 16.2468ZM134.005 16.2468C134.03 15.086 134.176 13.973 134.43 12.9783C135.317 13.1193 136.241 13.1923 137.168 13.1923C138.087 13.1923 139.011 13.1168 139.905 12.9733C140.159 13.9679 140.308 15.0809 140.333 16.2443H134.005V16.2468ZM140.33 16.9569C140.305 18.1203 140.159 19.2333 139.902 20.228C139.008 20.087 138.084 20.0089 137.165 20.0089C136.238 20.0089 135.317 20.0845 134.428 20.223C134.174 19.2283 134.028 18.1178 134.002 16.9544H140.33V16.9569ZM140.537 12.1297C140.411 11.7394 140.267 11.3717 140.109 11.0293C139.799 10.367 139.439 9.8256 139.041 9.4227C140.645 9.70976 142.091 10.3594 143.244 11.2609C142.456 11.6235 141.529 11.9207 140.537 12.1297ZM139.311 11.2836C139.457 11.5958 139.585 11.9308 139.701 12.2833C138.867 12.4142 138.009 12.4847 137.168 12.4847C136.306 12.4847 135.453 12.4168 134.632 12.2883C134.748 11.9333 134.879 11.5958 135.025 11.2811C135.627 9.99179 136.407 9.25146 137.168 9.25146C137.928 9.25146 138.709 9.99431 139.311 11.2836ZM134.226 11.0293C134.065 11.3742 133.922 11.7469 133.796 12.1398C132.814 11.9308 131.897 11.6336 131.094 11.2584C132.247 10.3569 133.69 9.70976 135.294 9.42018C134.896 9.8256 134.536 10.3645 134.226 11.0293ZM133.796 21.0665C133.922 21.4594 134.065 21.832 134.226 22.177C134.536 22.8393 134.896 23.3807 135.294 23.7836C133.69 23.4965 132.247 22.8494 131.094 21.9454C131.897 21.5727 132.814 21.2755 133.796 21.0665ZM135.025 21.9202C134.879 21.6079 134.748 21.2705 134.632 20.9129C135.453 20.7845 136.306 20.7165 137.168 20.7165C138.009 20.7165 138.87 20.787 139.701 20.918C139.585 21.2705 139.454 21.6054 139.311 21.9177C138.709 23.2069 137.928 23.9473 137.168 23.9473C136.407 23.9473 135.627 23.2095 135.025 21.9202ZM140.109 22.177C140.27 21.8346 140.411 21.4644 140.537 21.0766C141.529 21.2856 142.456 21.5827 143.241 21.9479C142.088 22.8494 140.643 23.499 139.039 23.7861C139.436 23.3782 139.799 22.8393 140.109 22.177ZM140.738 20.3816C141.008 19.3366 141.161 18.1707 141.187 16.9569H146.019C145.921 18.6592 145.12 20.2129 143.853 21.4191C142.952 20.9759 141.884 20.6233 140.738 20.3816Z" fill="#0350F4"/>
<path d="M117.534 33.9391H121.172C121.193 35.0396 121.308 36.0972 121.51 37.0465C120.654 37.2656 119.853 37.5854 119.165 37.9933C118.211 36.8954 117.607 35.4853 117.534 33.9391ZM119.165 29.2428C119.853 29.6508 120.654 29.9706 121.51 30.1896C121.308 31.139 121.193 32.1966 121.172 33.297H117.534C117.607 31.7484 118.211 30.3382 119.165 29.2428ZM130.865 33.2945H127.226C127.206 32.1916 127.09 31.1339 126.889 30.1846C127.752 29.9655 128.556 29.6457 129.233 29.2403C130.187 30.3382 130.789 31.7484 130.865 33.2945ZM121.817 33.2945C121.835 32.2394 121.945 31.2296 122.137 30.3281C122.804 30.4566 123.499 30.5246 124.199 30.5246C124.892 30.5246 125.587 30.4566 126.259 30.3256C126.45 31.2296 126.561 32.2394 126.581 33.297H121.817V33.2945ZM126.581 33.9391C126.564 34.9942 126.453 36.0065 126.259 36.9105C125.587 36.7821 124.889 36.7116 124.199 36.7116C123.502 36.7116 122.807 36.7796 122.137 36.908C121.945 36.004 121.835 34.9942 121.817 33.9417H126.581V33.9391ZM126.735 29.5551C126.639 29.2025 126.533 28.8651 126.413 28.5554C126.178 27.9535 125.906 27.4625 125.607 27.0949C126.816 27.3568 127.903 27.946 128.772 28.7644C128.183 29.0943 127.483 29.3637 126.735 29.5551ZM125.813 28.787C125.922 29.0691 126.02 29.3738 126.108 29.6961C125.481 29.8144 124.834 29.8799 124.199 29.8799C123.552 29.8799 122.907 29.817 122.288 29.7036C122.376 29.3813 122.474 29.0741 122.585 28.7896C123.038 27.6186 123.628 26.9463 124.199 26.9463C124.771 26.9438 125.36 27.6161 125.813 28.787ZM121.983 28.5554C121.862 28.8676 121.754 29.2076 121.658 29.5626C120.918 29.3738 120.228 29.1043 119.624 28.7619C120.492 27.9435 121.58 27.3542 122.787 27.0923C122.489 27.4625 122.217 27.9535 121.983 28.5554ZM121.658 37.671C121.754 38.0286 121.862 38.366 121.983 38.6783C122.217 39.2801 122.489 39.7711 122.789 40.1388C121.58 39.8769 120.492 39.2902 119.626 38.4693C120.228 38.1318 120.918 37.8599 121.658 37.671ZM122.585 38.4466C122.474 38.162 122.376 37.8548 122.288 37.5325C122.907 37.4167 123.55 37.3562 124.199 37.3562C124.834 37.3562 125.481 37.4217 126.108 37.5401C126.02 37.8599 125.922 38.1646 125.813 38.4491C125.36 39.62 124.771 40.2924 124.199 40.2924C123.625 40.2899 123.038 39.6175 122.585 38.4466ZM126.413 38.6808C126.533 38.3685 126.642 38.0336 126.735 37.6811C127.48 37.8725 128.18 38.1419 128.772 38.4718C127.903 39.2902 126.816 39.8794 125.607 40.1413C125.909 39.7737 126.181 39.2826 126.413 38.6808ZM126.889 37.049C127.09 36.0997 127.206 35.0421 127.226 33.9391H130.865C130.792 35.4853 130.187 36.8954 129.233 37.9933C128.556 37.5904 127.75 37.2681 126.889 37.049Z" fill="#A020F0"/>
</svg>
