<?xml version="1.0" standalone="no"?>
<!DOCTYPE svg PUBLIC "-//W3C//DTD SVG 20010904//EN"
 "http://www.w3.org/TR/2001/REC-SVG-20010904/DTD/svg10.dtd">
<svg version="1.0" xmlns="http://www.w3.org/2000/svg"
 width="157.000000pt" height="41.000000pt" viewBox="0 0 157.000000 41.000000"
 preserveAspectRatio="xMidYMid meet">

<g transform="translate(0.000000,41.000000) scale(0.100000,-0.100000)"
fill="#000000" stroke="none">
<path d="M92 364 c-17 -11 -22 -24 -21 -52 2 -34 2 -35 6 -7 3 17 14 40 26 53
24 26 20 28 -11 6z"/>
<path d="M480 325 c0 -25 1 -25 83 -25 76 1 83 3 100 25 l18 25 -101 0 -100 0
0 -25z"/>
<path d="M480 245 l0 -26 88 3 c75 3 87 5 86 20 -1 10 2 16 6 13 5 -3 11 -1
15 5 4 6 -29 10 -94 10 l-101 0 0 -25z"/>
<path d="M579 183 c-87 -3 -97 -6 -102 -24 -5 -19 -1 -20 85 -17 81 3 92 5
106 26 8 12 13 21 11 20 -2 -1 -47 -4 -100 -5z"/>
<path d="M744 178 c-3 -5 -2 -13 2 -20 4 -6 3 -8 -4 -4 -6 3 -13 2 -17 -4 -8
-14 170 -13 196 0 10 6 19 16 19 23 0 9 -26 13 -96 12 -53 0 -98 -3 -100 -7z
m125 -24 c3 -3 -20 -4 -51 -3 -32 1 -55 6 -52 10 5 8 94 2 103 -7z"/>
<path d="M978 178 c-11 -30 21 -53 37 -28 3 5 0 7 -8 4 -8 -3 -18 -1 -21 4 -3
5 0 10 7 9 30 -1 47 4 47 13 0 15 -57 12 -62 -2z"/>
<path d="M1146 183 c-51 -3 -73 -9 -82 -21 -17 -24 -7 -30 11 -6 13 16 14 16
9 2 -6 -16 4 -18 105 -18 110 0 111 0 101 21 -15 26 -40 36 -51 18 -6 -10 -9
-10 -9 -1 0 6 -3 11 -7 10 -5 -1 -39 -4 -77 -5z"/>
<path d="M1330 163 c0 -13 6 -23 14 -23 17 0 31 18 21 28 -3 3 -10 0 -15 -8
-6 -9 -10 -10 -10 -3 0 7 8 16 18 22 15 9 14 10 -5 8 -17 -1 -23 -8 -23 -24z"/>
<path d="M332 103 c-1 -21 -11 -38 -28 -52 -15 -12 -22 -21 -16 -21 5 0 20 8
32 18 17 13 21 25 17 52 l-4 35 -1 -32z"/>
</g>
</svg>
